<svg xmlns="http://www.w3.org/2000/svg" width="16" height="16" viewBox="0 0 16 16">
  <g id="condition_svg" data-name="condition svg" transform="translate(-52.168 -79.885)">
    <rect id="長方形_65" data-name="長方形 65" width="16" height="16" transform="translate(52.168 79.885)" fill="none"/>
    <path id="パス_337" data-name="パス 337" d="M64.339,95.5a.6.6,0,0,1-.277-.068L59.92,93.282l-4.144,2.152a.6.6,0,0,1-.806-.248.59.59,0,0,1-.06-.373l.795-4.554-3.353-3.226a.584.584,0,0,1-.01-.832.6.6,0,0,1,.34-.172l4.633-.669,2.072-4.146a.6.6,0,0,1,.535-.328h0a.6.6,0,0,1,.534.328l2.072,4.146,4.633.669a.586.586,0,0,1,.33,1l-3.36,3.226.795,4.554a.59.59,0,0,1-.486.68.542.542,0,0,1-.1.009Z" fill="#ccc"/>
  </g>
</svg>
