<svg id="favorit_svg" data-name="favorit svg" xmlns="http://www.w3.org/2000/svg" width="16" height="16" viewBox="0 0 16 16">
  <rect id="長方形_65" data-name="長方形 65" width="16" height="16" transform="translate(0)" fill="none"/>
  <path id="路径_337" data-name="路径 337" d="M423.619,152.529a.6.6,0,0,1-.277-.068l-4.144-2.152-4.144,2.152a.6.6,0,0,1-.628-.045.586.586,0,0,1-.238-.576l.792-4.555-3.353-3.226a.584.584,0,0,1-.151-.6.594.594,0,0,1,.481-.4l4.633-.669,2.072-4.146a.6.6,0,0,1,.535-.328h0a.6.6,0,0,1,.534.328l2.072,4.146,4.633.669a.6.6,0,0,1,.481.4.584.584,0,0,1-.151.6l-3.353,3.226.792,4.555a.585.585,0,0,1-.238.576A.6.6,0,0,1,423.619,152.529Zm-10.294-8.481,2.712,2.609a.584.584,0,0,1,.172.521l-.64,3.686,3.352-1.741a.6.6,0,0,1,.555,0l3.352,1.741-.641-3.686a.584.584,0,0,1,.172-.521l2.712-2.609-3.749-.541a.6.6,0,0,1-.448-.323L419.2,139.83l-1.676,3.354a.6.6,0,0,1-.448.323Z" transform="translate(-411.447 -137.033)" fill="#fff"/>
</svg>
