<svg xmlns="http://www.w3.org/2000/svg" width="20" height="20" viewBox="0 0 20 20">
  <g id="favorit_svg" data-name="favorit svg" transform="translate(-52.167 -79.885)">
    <rect id="長方形_65" data-name="長方形 65" width="20" height="20" transform="translate(52.167 79.885)" fill="none"/>
    <path id="パス_337" data-name="パス 337" d="M67.479,99.5a.748.748,0,0,1-.349-.086l-5.211-2.743-5.213,2.741a.751.751,0,0,1-1.014-.316.759.759,0,0,1-.075-.475l1-5.8L52.4,88.715a.751.751,0,0,1,.415-1.279l5.829-.852L61.25,81.3a.752.752,0,0,1,.673-.418h0a.748.748,0,0,1,.672.418L65.2,86.584l5.829.852a.749.749,0,0,1,.415,1.279l-4.227,4.109,1,5.8a.75.75,0,0,1-.612.866.674.674,0,0,1-.127.011Z" fill="#c8aa5d"/>
  </g>
</svg>
