<svg id="favorit_svg" data-name="favorit svg" xmlns="http://www.w3.org/2000/svg" width="20" height="20" viewBox="0 0 20 20">
  <rect id="長方形_65" data-name="長方形 65" width="20" height="20" fill="none"/>
  <path id="路径_337" data-name="路径 337" d="M426.76,156.529a.747.747,0,0,1-.349-.086L421.2,153.7l-5.213,2.741a.751.751,0,0,1-1.089-.791l1-5.8-4.218-4.109a.75.75,0,0,1,.415-1.279l5.829-.852,2.607-5.281a.75.75,0,0,1,.673-.418h0a.749.749,0,0,1,.672.418l2.607,5.281,5.829.852a.75.75,0,0,1,.415,1.279L426.5,149.85l1,5.8a.75.75,0,0,1-.739.877Zm-12.951-10.8,3.412,3.323a.75.75,0,0,1,.216.664l-.805,4.694,4.217-2.217a.749.749,0,0,1,.7,0l4.217,2.217-.806-4.694a.75.75,0,0,1,.216-.664l3.412-3.323-4.716-.689a.749.749,0,0,1-.564-.411l-2.108-4.272-2.109,4.272a.749.749,0,0,1-.564.411Z" transform="translate(-411.088 -136.911)" fill="#00253e"/>
</svg>
