<svg xmlns="http://www.w3.org/2000/svg" width="16" height="16" viewBox="0 0 16 16">
  <g id="save_icon_svg" data-name="save icon svg" transform="translate(-409.513 -289.561)">
    <rect id="矩形_111" data-name="矩形 111" width="16" height="16" transform="translate(409.513 289.561)" fill="none"/>
    <g id="组_347" data-name="组 347" transform="translate(408.263 288.311)">
      <path id="路径_363" data-name="路径 363" d="M14.276,16.25H4.224A1.976,1.976,0,0,1,2.25,14.276V4.224A1.976,1.976,0,0,1,4.224,2.25h7.9a.536.536,0,0,1,.381.158L16.092,6a.537.537,0,0,1,.158.381v7.9A1.976,1.976,0,0,1,14.276,16.25ZM4.224,3.327a.9.9,0,0,0-.9.9V14.276a.9.9,0,0,0,.9.9H14.276a.9.9,0,0,0,.9-.9V6.6L11.9,3.327Z" fill="#fff"/>
      <path id="路径_364" data-name="路径 364" d="M13.968,19.071a.539.539,0,0,1-.538-.538V13.327h-6.1v5.205a.538.538,0,1,1-1.077,0V12.788a.539.539,0,0,1,.538-.538h7.179a.539.539,0,0,1,.538.538v5.744A.539.539,0,0,1,13.968,19.071Z" transform="translate(-1.128 -2.821)" fill="#fff"/>
      <path id="路径_365" data-name="路径 365" d="M12.532,6.917H6.788a.539.539,0,0,1-.538-.538V2.788a.538.538,0,0,1,1.077,0V5.84h5.205a.538.538,0,1,1,0,1.077Z" transform="translate(-1.128)" fill="#fff"/>
    </g>
  </g>
</svg>
