<svg xmlns="http://www.w3.org/2000/svg" width="22" height="24" viewBox="0 0 22 24">
  <g id="_830_ma_h" data-name=" 830 ma h" transform="translate(-339.823 -285.161)">
    <rect id="長方形_55" data-name="長方形 55" width="22" height="24" transform="translate(339.823 285.161)" fill="none"/>
    <g id="グループ_293" data-name="グループ 293">
      <path id="路径_332" data-name="路径 332" d="M358.922,305.084h-16.7a.75.75,0,0,1-.75-.75V289.961a.75.75,0,0,1,.75-.75h16.7a.75.75,0,0,1,.75.75v14.373A.75.75,0,0,1,358.922,305.084Zm-15.949-1.5h15.2V290.711h-15.2Z" fill="#00253e"/>
      <path id="路径_333" data-name="路径 333" d="M350.572,299.631a.746.746,0,0,1-.435-.14l-5.567-3.964a.75.75,0,0,1,.87-1.221l5.132,3.653,5.131-3.653a.75.75,0,1,1,.87,1.221l-5.566,3.964A.751.751,0,0,1,350.572,299.631Z" fill="#00253e"/>
    </g>
  </g>
</svg>
