<svg xmlns="http://www.w3.org/2000/svg" width="25.372" height="30" viewBox="0 0 25.372 30">
  <g id="组_291" data-name="组 291" transform="translate(-265.003 -110.003)">
    <path id="路径_107" data-name="路径 107" d="M316.521,112.365H299.838a1.2,1.2,0,0,0-1.2,1.2v27.4a1.2,1.2,0,0,0,1.2,1.2H319.88a1.2,1.2,0,0,0,1.2-1.2V116.921Z" transform="translate(-30.702 -2.156)" fill="#b5b5b4"/>
    <path id="路径_108" data-name="路径 108" d="M314.761,110H298.079a1.2,1.2,0,0,0-1.2,1.2v27.4a1.2,1.2,0,0,0,1.2,1.2H318.12a1.2,1.2,0,0,0,1.2-1.2V114.559Z" transform="translate(-29.096 0)" fill="#e5e5e4"/>
    <path id="路径_109" data-name="路径 109" d="M501.66,113.362a1.2,1.2,0,0,0,1.2,1.2h3.36L501.66,110Z" transform="translate(-215.995 0)" fill="#c9cacb"/>
    <rect id="矩形_54" data-name="矩形 54" width="15.338" height="6.018" transform="translate(265.003 112.831)" fill="#c00019"/>
    <text id="PDF" transform="translate(271.185 116.158)" fill="#fff" font-size="3" font-family="SegoeUI, Segoe UI"><tspan x="-2.624" y="0">PDF</tspan></text>
    <text id="Adobe" transform="translate(276.558 137.046)" fill="#1a1311" font-size="3" font-family="SegoeUI, Segoe UI"><tspan x="0" y="0">Adobe</tspan></text>
    <path id="路径_110" data-name="路径 110" d="M339.642,235.1s5.355-1.117,5.394,1.04-4.238.655-5.7-.308a36.762,36.762,0,0,0-6.781,1.464s-2.2,4.662-4.161,4.392.27-3.159,3.2-4.238a47,47,0,0,0,3.379-6.676s-1.852-5.921.089-6.115c2.312-.231.771,5.69.771,5.69S337.33,234.211,339.642,235.1Zm-1.108.193a9.127,9.127,0,0,1-3.178-3.67,55.344,55.344,0,0,1-2.572,5.259A17.835,17.835,0,0,1,338.534,235.29Zm-10.412,6.01c.848.462,3.39-3.545,3.39-3.545C330.973,237.756,327.274,240.838,328.122,241.3Zm12.444-5.7s4.007,1.811,4.315.693S340.566,235.6,340.566,235.6Zm-5.085-6.125s.809-2.658.578-3.66-.918-1.077-.963-.308A24.558,24.558,0,0,0,335.481,229.473Z" transform="translate(-57.177 -104.638)" fill="#dc000c"/>
  </g>
</svg>
