<svg xmlns="http://www.w3.org/2000/svg" width="18.333" height="20" viewBox="0 0 18.333 20">
  <g id="_830_ma_h" data-name=" 830 ma h" transform="translate(-339.823 -285.161)">
    <rect id="長方形_55" data-name="長方形 55" width="18.333" height="20" transform="translate(339.823 285.161)" fill="none"/>
    <g id="グループ_293" data-name="グループ 293" transform="translate(341.198 288.536)">
      <path id="路径_332" data-name="路径 332" d="M356.014,302.439H342.1a.625.625,0,0,1-.625-.625V289.836a.625.625,0,0,1,.625-.625h13.916a.625.625,0,0,1,.625.625v11.978A.625.625,0,0,1,356.014,302.439Zm-13.291-1.25h12.666V290.461H342.723Z" transform="translate(-341.473 -289.211)" fill="#fff"/>
      <path id="路径_333" data-name="路径 333" d="M349.519,298.72a.622.622,0,0,1-.362-.117l-4.639-3.3a.625.625,0,0,1,.725-1.018l4.277,3.044,4.276-3.044a.625.625,0,1,1,.725,1.018l-4.638,3.3A.626.626,0,0,1,349.519,298.72Z" transform="translate(-341.937 -290.037)" fill="#fff"/>
    </g>
  </g>
</svg>
