<svg xmlns="http://www.w3.org/2000/svg" width="28" height="14" viewBox="0 0 28 14">
  <path id="iconmonstr-user-30" d="M21,20H19.832c0-1.811.07-2.071-1.027-2.325-1.678-.387-3.263-.753-3.842-2.017a2.431,2.431,0,0,1,.181-2.225c1.191-2.25,1.49-4.18.819-5.294a2.471,2.471,0,0,0-3.949.02c-.672,1.129-.369,3.048.832,5.264a2.415,2.415,0,0,1,.2,2.226c-.572,1.271-2.142,1.633-3.806,2.016-1.146.265-1.073.507-1.073,2.336H7l0-.727c0-1.469.117-2.316,1.853-2.717,1.962-.454,3.9-.859,2.969-2.577C9.062,8.886,11.033,6,14,6c2.907,0,4.932,2.78,2.178,7.979-.9,1.708.961,2.114,2.969,2.577,1.738.4,1.854,1.251,1.854,2.722Zm5.612-2.583c-1.5-.348-2.9-.652-2.226-1.933,2.065-3.9.548-5.984-1.633-5.984a2.5,2.5,0,0,0-2.623,2.712,7.81,7.81,0,0,0,1.055,3.413H22.4c-.2-.875-1.71-2.989-.894-4.359a1.566,1.566,0,0,1,2.466-.014c.443.736.211,2.114-.623,3.688a2.1,2.1,0,0,0-.141,1.923,2.917,2.917,0,0,0,2.027,1.409c1.758.514,1.6.049,1.6,1.727H28l0-.54c0-1.1-.086-1.741-1.392-2.042ZM0,20H1.165c0-1.678-.162-1.212,1.6-1.727a2.912,2.912,0,0,0,2.026-1.409,2.1,2.1,0,0,0-.141-1.923c-.834-1.574-1.066-2.952-.623-3.688a1.565,1.565,0,0,1,2.466.014c.817,1.371-.7,3.484-.894,4.359H6.819a7.81,7.81,0,0,0,1.055-3.413A2.5,2.5,0,0,0,5.252,9.5c-2.182,0-3.7,2.085-1.633,5.984.678,1.282-.722,1.585-2.226,1.933C.086,17.718,0,18.356,0,19.46L0,20Z" transform="translate(0 -6)" fill="#00253e"/>
</svg>
