<svg xmlns="http://www.w3.org/2000/svg" width="20" height="20" viewBox="0 0 20 20">
  <g id="edit-3" transform="translate(-604.498 -771.541)">
    <rect id="矩形_112" data-name="矩形 112" width="20" height="20" transform="translate(604.498 771.541)" fill="none"/>
    <g id="组_348" data-name="组 348" transform="translate(3 1)">
      <path id="路径_129" data-name="路径 129" d="M620.5,791.433h-8.1a.9.9,0,0,1,0-1.8h8.1a.9.9,0,0,1,0,1.8Z" transform="translate(-0.9 -1.71)" fill="#666"/>
      <path id="路径_130" data-name="路径 130" d="M603.4,789.723a.9.9,0,0,1-.874-1.118l.9-3.6a.9.9,0,0,1,.238-.418l11.25-11.25h0a2.876,2.876,0,0,1,3.973,0,2.809,2.809,0,0,1,0,3.972l-11.25,11.25a.9.9,0,0,1-.418.237l-3.6.9A.9.9,0,0,1,603.4,789.723Zm1.712-4.039-.475,1.9,1.9-.477,11.074-11.072a1.01,1.01,0,0,0,0-1.427,1.033,1.033,0,0,0-1.427,0h0Zm10.438-11.71h0Z" fill="#666"/>
    </g>
  </g>
</svg>
