<svg xmlns="http://www.w3.org/2000/svg" width="20" height="20" viewBox="0 0 20 20">
  <g id="question_svg" data-name="question svg" transform="translate(-142.845 -182.157)">
    <rect id="長方形_66" data-name="長方形 66" width="20" height="20" transform="translate(142.845 182.157)" fill="none"/>
    <g id="グループ_315" data-name="グループ 315">
      <path id="路径_338" data-name="路径 338" d="M145.738,200.014a.734.734,0,0,1-.286-.057.75.75,0,0,1-.464-.693V186.436a2.352,2.352,0,0,1,2.35-2.35h11.225a2.353,2.353,0,0,1,2.351,2.35l0,8.018h0a2.353,2.353,0,0,1-2.351,2.35h-9.311l-2.986,2.99A.749.749,0,0,1,145.738,200.014Zm1.6-14.428a.851.851,0,0,0-.85.85v11.016l1.926-1.928a.747.747,0,0,1,.53-.22h9.622a.851.851,0,0,0,.851-.85l0-8.017a.852.852,0,0,0-.851-.851Z" fill="#2e4e23"/>
      <path id="路径_339" data-name="路径 339" d="M152.631,191.6a.75.75,0,0,1-.237-1.461c.416-.142,1.2-.581,1.2-1a.962.962,0,0,0-.639-.9.959.959,0,0,0-1.223.584.75.75,0,0,1-1.415-.5,2.459,2.459,0,0,1,4.777.82c0,1.632-1.994,2.345-2.221,2.42A.733.733,0,0,1,152.631,191.6Z" fill="#2e4e23"/>
      <path id="路径_340" data-name="路径 340" d="M152.684,193.879a.75.75,0,0,1-.007-1.5h.007a.75.75,0,0,1,0,1.5Z" fill="#2e4e23"/>
    </g>
  </g>
</svg>
