<svg xmlns="http://www.w3.org/2000/svg" width="22" height="24" viewBox="0 0 22 24">
  <g id="printer" transform="translate(-339.823 -285.161)">
    <rect id="長方形_57" data-name="長方形 57" width="22" height="24" transform="translate(339.823 285.161)" fill="none"/>
    <g id="グループ_295" data-name="グループ 295">
      <path id="路径_334" data-name="路径 334" d="M355.982,295.031a.75.75,0,0,1-.75-.75v-5.969h-10.02v5.969a.75.75,0,0,1-1.5,0v-6.719a.75.75,0,0,1,.75-.75h11.52a.75.75,0,0,1,.75.75v6.719A.75.75,0,0,1,355.982,295.031Z" fill="#00253e"/>
      <path id="路径_335" data-name="路径 335" d="M357.9,303.671h-1.92a.75.75,0,1,1,0-1.5h1.92a1.172,1.172,0,0,0,1.171-1.17v-4.8a1.172,1.172,0,0,0-1.171-1.17h-15.36a1.171,1.171,0,0,0-1.169,1.17V301a1.171,1.171,0,0,0,1.169,1.17h1.92a.75.75,0,0,1,0,1.5h-1.92a2.672,2.672,0,0,1-2.669-2.67v-4.8a2.672,2.672,0,0,1,2.669-2.67H357.9a2.674,2.674,0,0,1,2.671,2.67V301A2.673,2.673,0,0,1,357.9,303.671Z" fill="#00253e"/>
      <path id="路径_336" data-name="路径 336" d="M355.982,307.512h-11.52a.75.75,0,0,1-.75-.75v-7.681a.75.75,0,0,1,.75-.75h11.52a.75.75,0,0,1,.75.75v7.681A.75.75,0,0,1,355.982,307.512Zm-10.77-1.5h10.02v-6.181h-10.02Z" fill="#00253e"/>
    </g>
  </g>
</svg>
