<svg id="question-line_3_" data-name="question-line (3)" xmlns="http://www.w3.org/2000/svg" width="20" height="20" viewBox="0 0 20 20">
  <path id="路径_404" data-name="路径 404" d="M0,0H20V20H0Z" fill="none"/>
  <path id="路径_405" data-name="路径 405" d="M10.333,18.667a8.333,8.333,0,1,1,8.333-8.333A8.333,8.333,0,0,1,10.333,18.667Zm0-1.667a6.667,6.667,0,1,0-6.667-6.667A6.667,6.667,0,0,0,10.333,17ZM9.5,12.833h1.667V14.5H9.5Zm1.667-1.371V12H9.5V10.75a.833.833,0,0,1,.833-.833,1.25,1.25,0,1,0-1.226-1.5L7.473,8.094a2.917,2.917,0,1,1,3.694,3.368Z" transform="translate(-0.333 -0.333)"/>
</svg>
