<svg xmlns="http://www.w3.org/2000/svg" width="32" height="32" viewBox="0 0 32 32">
  <g id="bell" transform="translate(-281.5 -404.001)">
    <rect id="矩形_493" data-name="矩形 493" width="32" height="32" transform="translate(281.5 404.001)" fill="none"/>
    <g id="bell-2" data-name="bell" transform="translate(-0.25 -1.25)">
      <path id="路径_411" data-name="路径 411" d="M306.5,426.752h-18a.75.75,0,0,1-.416-1.374c.02-.014,2.666-1.945,2.666-8.377a6.75,6.75,0,0,1,13.5,0c0,6.432,2.646,8.363,2.673,8.382a.751.751,0,0,1-.423,1.369Zm-16.314-1.5h14.627c-.942-1.374-2.063-3.918-2.063-8.251a5.25,5.25,0,0,0-10.5,0C292.25,421.334,291.129,423.878,290.186,425.252Z" fill="#0b253c"/>
      <path id="路径_412" data-name="路径 412" d="M297.495,431.747a2.747,2.747,0,0,1-2.373-1.368.75.75,0,1,1,1.3-.754,1.251,1.251,0,0,0,2.164,0,.75.75,0,0,1,1.3.754A2.753,2.753,0,0,1,297.495,431.747Z" fill="#0b253c"/>
    </g>
  </g>
</svg>
