<svg xmlns="http://www.w3.org/2000/svg" width="160.275" height="60" viewBox="0 0 160.275 60">
  <g id="组_17" data-name="组 17" transform="translate(-450.845 -259.947)">
    <g id="组_283" data-name="组 283" transform="translate(450.845 259.947)">
      <path id="路径_104" data-name="路径 104" d="M369.969,126.925a.536.536,0,0,0-.578.294l-.047.147a3.727,3.727,0,0,1-.412.962,20.807,20.807,0,0,1-3.583,5.173,25.818,25.818,0,0,1-4.514,3.343c-3.6,2.159-6.942,3.1-8.935,2.509-3.574-1.043-2.565-6.729-1.64-10.053a11.368,11.368,0,0,1,.962-2.893c9.853-7.876,25-23.383,27.929-33.33l.016-.109c0-1.759-3.23-5.186-5.986-5.186a4.088,4.088,0,0,0-1.015.172,6.608,6.608,0,0,0-1.143.584,4.938,4.938,0,0,0-.409.3c-2.759,1.206-18.963,19.016-25.364,35.2a40.511,40.511,0,0,0-1.45,4.3c-3.677,2.721-14.37,10.6-19.156,10.6-.9,0-1.065-.487-1.065-1.862a10.367,10.367,0,0,1,1.253-3.939c6.045-1.134,14.808-5.251,14.808-10.669,0-1.468-2.793-3.949-4.1-3.949a3,3,0,0,0-.472.044l-.081.013a3.384,3.384,0,0,0-2.281-1.365c-2.059,0-8.044,5.633-11.618,11.637l-.066.047c-4.536,3.255-12.927,9.269-14.736,9.453.053-1.684,3.724-8.091,7.276-14.289,1.246-2.177,2.505-4.367,3.636-6.41,4.183-1.081,10.231-3.461,10.231-4.624a.976.976,0,0,0-1.043-.9,11.43,11.43,0,0,0-1.518.3c-1.231.275-3.208.719-5.48,1.106,1.4-2.73,2.084-4.514,2.084-5.445,0-1.584-2.93-3.008-4.317-3.008-.447,0-1.043.1-1.043.975,0,1.706-2.621,6.573-3.633,8.425-1.278.128-2.571.194-3.749.194a6.936,6.936,0,0,1-2.918-.625,1.528,1.528,0,0,0-.569-.175l-.122.022a.908.908,0,0,0-.556.875c.328,1.784,2.243,3.7,5.686,3.805-.84,1.543-1.718,3.124-2.593,4.689l-1.49,2.693a1.728,1.728,0,0,0-.744.366c-6.885,5.9-15.192,12.206-16.826,12.4a.908.908,0,0,1-.187-.475c0-.862,2-3.761,3.761-6.317,2.6-3.771,4.3-6.332,4.3-7.563,0-1.712-3.371-3.949-4.6-3.949l-.137.022a20.786,20.786,0,0,0-2.315,1.45l-.868.575c1.072-1.781,2.04-3.627,2.04-4.639,0-1.912-2.405-3.3-4.027-3.3a.829.829,0,0,0-.9.828c0,.687-1.225,2.83-2.306,4.724-1.549,2.709-2.49,4.42-2.49,5.3a2.207,2.207,0,0,0,.522,1.253c-.337.284-.8.678-1.346,1.146-3.2,2.73-11.537,9.844-13.652,10.269.119-1.971,7.192-14.449,9.025-17.479l.053-.028v-.109a.634.634,0,0,0,.078-.284c0-.918-1.9-2.787-4.1-2.787-.55,0-1.156.712-2.484,2.684-.984-1.3-2.34-2.54-3.549-2.54-2.171,0-8.529,4.992-12.821,10.772l-.822.687c-6.614,5.536-16.6,13.9-23.852,13.9-1.543,0-2.293-.965-2.293-2.952,0-15.326,18.191-36.91,27.951-42.149-1.731,4.627-3.083,9.475-3.083,11.122,0,1.559,1.018,4.242,2.062,4.242.456,0,.7-.49.8-.694,2.646-7.138,6.52-13.5,9.944-19.113.594-.972,1.168-1.918,1.662-2.762a.649.649,0,0,0,.187-.494c0-1.425-4.118-2.643-5.4-2.643-.415,0-1.662,0-4.458,6.195a5.475,5.475,0,0,0-3.386-1.981c-4.814,0-13.39,8.226-19.756,16.379-8.3,10.637-13.261,21.259-13.261,28.407,0,6.476,4.82,11,11.724,11,5.692,0,14.242-8.122,18.232-12.262a10.593,10.593,0,0,0-.531,3.152c0,2.79,3.293,5.114,4.533,5.114,1.493,0,4.911-3.861,9.584-9.672-.8,1.846-1.69,3.986-1.69,4.992,0,2.312,3.374,4.389,4.967,4.389,2.53,0,14.452-12.071,17.06-15.245a3.449,3.449,0,0,0,1.759.64c.465,0,1.343-.684,3.549-2.487.984-.806,2.059-1.687,2.89-2.277a43.533,43.533,0,0,1-3.783,5.933c-2.39,3.368-4.645,6.548-4.645,8.613,0,2.684,3.415,5.042,5.48,5.042,1.971,0,10.509-7.507,15.28-12.1-2.056,3.949-2.952,6.176-2.952,7.276,0,2.924,2.39,5.114,4.53,5.114,2.552,0,10.594-6.626,13.839-9.391a9.614,9.614,0,0,0-.353,2.459,6.714,6.714,0,0,0,6.857,6.714c4.961,0,12.98-6.632,17.807-11.087-.678,6.767,2.9,8.629,4.67,9.544l.241.128a12.162,12.162,0,0,0,5.642,1.053,18.562,18.562,0,0,0,3.871-.462c9.163-2.068,12.859-11.421,13.027-12.605a7.6,7.6,0,0,0,.094-2.277C370.544,127.494,370.362,127,369.969,126.925Zm-15.867-6.5c6.454-11.749,14.574-23.63,18.985-27.726a2.724,2.724,0,0,1,.137.781C373.224,97.85,363.486,110.774,354.1,120.421Zm-27.32,9.341a30.627,30.627,0,0,1,7.263-7.994,4.08,4.08,0,0,1,.3,1.428C334.349,125.3,331.74,127.566,326.782,129.762Zm-59.966-6.236a52.779,52.779,0,0,1-4.308,6.1l0,0c-3.921,4.649-7.941,8.4-8.491,8.582h-.047v-.044c0-3.633,8.488-15.38,12.834-15.38a1.281,1.281,0,0,1,.434.087Z" transform="translate(-218.891 -87.419)" fill="#00253e"/>
      <path id="路径_105" data-name="路径 105" d="M273.5,105.265a1.082,1.082,0,0,0-.447-.794,4.853,4.853,0,0,0-3.08-1.068c-1.19.281-1.343,2.274-1.343,3.977a1.8,1.8,0,0,0,.818,1.356,1.875,1.875,0,0,0,1.072.409,1,1,0,0,0,.322-.05c2.705-1.175,2.677-2.721,2.662-3.646Z" transform="translate(-113.236 -53.51)" fill="#00253e"/>
    </g>
  </g>
</svg>
