<svg id="line-fill_1_" data-name="line-fill (1)" xmlns="http://www.w3.org/2000/svg" width="24" height="24" viewBox="0 0 24 24">
  <path id="路径_389" data-name="路径 389" d="M0,0H24V24H0Z" fill="none"/>
  <path id="路径_390" data-name="路径 390" d="M18.663,10.84a.526.526,0,0,1-.526.525H16.675V12.3h1.462a.525.525,0,1,1,0,1.049H16.15a.526.526,0,0,1-.522-.524V8.852a.527.527,0,0,1,.525-.525h1.988a.525.525,0,1,1,0,1.05H16.676v.938h1.462a.526.526,0,0,1,.526.525Zm-4.1,2.485a.538.538,0,0,1-.166.025.515.515,0,0,1-.425-.208l-2.036-2.764v2.45a.525.525,0,0,1-1.047,0V8.852a.522.522,0,0,1,.52-.523.538.538,0,0,1,.412.211l2.052,2.775V8.852a.525.525,0,0,1,1.05,0v3.976a.524.524,0,0,1-.36.5Zm-4.95.027a.526.526,0,0,1-.523-.524V8.852a.525.525,0,1,1,1.049,0v3.976A.527.527,0,0,1,9.615,13.352Zm-1.53,0H6.1a.528.528,0,0,1-.525-.524V8.852a.527.527,0,0,1,1.05,0V12.3H8.087a.525.525,0,0,1,0,1.05ZM12,2.572c-5.513,0-10,3.643-10,8.118,0,4.01,3.558,7.369,8.363,8.007.325.068.769.215.881.492a2.037,2.037,0,0,1,.032.9l-.137.85c-.037.25-.2.988.874.537a32.23,32.23,0,0,0,7.864-5.812A7.191,7.191,0,0,0,22,10.69c0-4.475-4.488-8.118-10-8.118Z" fill="#00253e"/>
</svg>
