<svg xmlns="http://www.w3.org/2000/svg" width="96.16" height="36" viewBox="0 0 96.16 36">
  <g id="logo_svg" data-name="logo svg" transform="translate(-97.469 -87.418)">
    <path id="路径_102" data-name="路径 102" d="M188.109,111.121a.325.325,0,0,0-.345.178l-.03.088a2.269,2.269,0,0,1-.247.577,12.421,12.421,0,0,1-2.148,3.1,15.424,15.424,0,0,1-2.71,2.007c-2.159,1.3-4.163,1.857-5.361,1.505-2.142-.626-1.537-4.037-.982-6.032a6.828,6.828,0,0,1,.575-1.737c5.913-4.725,15-14.027,16.758-20l.009-.066c0-1.055-1.94-3.111-3.591-3.111a2.467,2.467,0,0,0-.611.1,4.117,4.117,0,0,0-.686.351c-.066.041-.15.107-.246.182-1.653.723-11.375,11.407-15.218,21.118a24.73,24.73,0,0,0-.87,2.579c-2.2,1.633-8.62,6.36-11.491,6.36-.544,0-.639-.294-.639-1.119a6.189,6.189,0,0,1,.752-2.362c3.627-.68,8.882-3.151,8.882-6.4,0-.883-1.674-2.369-2.457-2.369a1.8,1.8,0,0,0-.285.026l-.047.007a2.034,2.034,0,0,0-1.368-.819c-1.237,0-4.828,3.379-6.971,6.982l-.041.028c-2.722,1.953-7.754,5.561-8.839,5.672.03-1.01,2.234-4.854,4.365-8.575.748-1.3,1.5-2.618,2.182-3.844,2.51-.649,6.138-2.077,6.138-2.774a.587.587,0,0,0-.628-.54,6.809,6.809,0,0,0-.909.178c-.74.165-1.927.431-3.288.664a9.52,9.52,0,0,0,1.25-3.267c0-.95-1.76-1.8-2.59-1.8-.27,0-.626.062-.626.585,0,1.023-1.574,3.944-2.18,5.055-.767.077-1.543.116-2.249.116a4.172,4.172,0,0,1-1.752-.375.919.919,0,0,0-.339-.1l-.075.013a.546.546,0,0,0-.332.525c.195,1.07,1.346,2.221,3.411,2.283-.5.926-1.033,1.874-1.556,2.813l-.9,1.616a1.036,1.036,0,0,0-.446.219c-4.129,3.537-9.113,7.323-10.1,7.437a.56.56,0,0,1-.111-.285c0-.517,1.2-2.257,2.257-3.79,1.559-2.262,2.581-3.8,2.581-4.538,0-1.027-2.022-2.369-2.763-2.369l-.082.013a12.537,12.537,0,0,0-1.389.87l-.519.345a7.515,7.515,0,0,0,1.222-2.783c0-1.147-1.441-1.977-2.414-1.977a.5.5,0,0,0-.54.5,12,12,0,0,1-1.383,2.834,10.071,10.071,0,0,0-1.494,3.183,1.329,1.329,0,0,0,.313.752c-.2.171-.48.407-.81.688-1.919,1.638-6.92,5.906-8.189,6.161.071-1.183,4.315-8.669,5.415-10.487l.03-.017v-.066a.356.356,0,0,0,.049-.171A2.608,2.608,0,0,0,129,105.38c-.33,0-.692.429-1.49,1.612-.589-.78-1.4-1.524-2.129-1.524-1.3,0-5.115,3-7.69,6.463l-.495.412c-3.966,3.321-9.96,8.341-14.309,8.341-.928,0-1.378-.581-1.378-1.771,0-9.2,10.914-22.145,16.77-25.288a29.312,29.312,0,0,0-1.85,6.673c0,.935.611,2.543,1.237,2.543.276,0,.424-.292.482-.414a66.821,66.821,0,0,1,5.968-11.467c.354-.583.7-1.151,1-1.657a.393.393,0,0,0,.111-.3c0-.855-2.47-1.588-3.241-1.588-.251,0-1,0-2.677,3.719a3.28,3.28,0,0,0-2.032-1.188c-2.888,0-8.033,4.935-11.851,9.827-4.982,6.382-7.956,12.753-7.956,17.043,0,3.885,2.892,6.6,7.034,6.6,3.413,0,8.543-4.873,10.939-7.357a6.355,6.355,0,0,0-.319,1.891,3.62,3.62,0,0,0,2.72,3.068c.9,0,2.945-2.317,5.749-5.8a11.322,11.322,0,0,0-1.014,3c0,1.387,2.024,2.633,2.98,2.633,1.52,0,8.671-7.242,10.236-9.147a2.082,2.082,0,0,0,1.057.384c.277,0,.8-.41,2.127-1.492.592-.485,1.237-1.012,1.734-1.366a25.758,25.758,0,0,1-2.27,3.559c-1.432,2.021-2.785,3.929-2.785,5.167,0,1.61,2.049,3.025,3.288,3.025,1.183,0,6.3-4.5,9.165-7.259-1.233,2.369-1.771,3.706-1.771,4.365a3.022,3.022,0,0,0,2.718,3.068c1.533,0,6.358-3.975,8.305-5.634a5.77,5.77,0,0,0-.212,1.475,4.028,4.028,0,0,0,4.114,4.028c2.976,0,7.786-3.979,10.682-6.652-.407,4.06,1.743,5.177,2.8,5.726l.146.077a7.266,7.266,0,0,0,3.383.63,10.986,10.986,0,0,0,2.322-.276c5.5-1.243,7.717-6.853,7.816-7.563a4.569,4.569,0,0,0,.058-1.366C188.456,111.464,188.345,111.169,188.109,111.121Zm-9.52-3.9c3.874-7.049,8.744-14.179,11.39-16.635a1.574,1.574,0,0,1,.082.469C190.062,93.678,184.222,101.432,178.589,107.22Zm-16.389,5.6a18.37,18.37,0,0,1,4.356-4.8,2.407,2.407,0,0,1,.184.857C166.74,110.15,165.175,111.507,162.2,112.824Zm-35.978-3.741a31.667,31.667,0,0,1-2.585,3.659l0,0a34.515,34.515,0,0,1-5.1,5.149h-.028v-.026c0-2.18,5.093-9.227,7.7-9.227a.768.768,0,0,1,.261.052Z" transform="translate(0 0)" fill="#00253e"/>
    <path id="路径_103" data-name="路径 103" d="M150.134,104.513a.652.652,0,0,0-.27-.478,2.915,2.915,0,0,0-1.846-.639c-.714.169-.806,1.365-.806,2.386a1.078,1.078,0,0,0,.491.813,1.12,1.12,0,0,0,.643.246.583.583,0,0,0,.191-.03c1.623-.7,1.608-1.633,1.6-2.187Z" transform="translate(43.491 13.959)" fill="#00253e"/>
  </g>
</svg>
