<svg xmlns="http://www.w3.org/2000/svg" width="280" height="104.825" viewBox="0 0 280 104.825">
  <g id="logo_svg" data-name="logo svg" transform="translate(-97.469 -87.418)">
    <path id="路径_102" data-name="路径 102" d="M361.4,156.436a.946.946,0,0,0-1,.518l-.087.257a6.608,6.608,0,0,1-.72,1.681,36.167,36.167,0,0,1-6.254,9.032,44.914,44.914,0,0,1-7.892,5.845c-6.287,3.771-12.122,5.409-15.609,4.382-6.238-1.823-4.475-11.756-2.86-17.563a19.881,19.881,0,0,1,1.675-5.059c17.219-13.759,43.667-40.845,48.8-58.222l.027-.191c0-3.073-5.649-9.06-10.457-9.06a7.183,7.183,0,0,0-1.779.3,11.988,11.988,0,0,0-2,1.021c-.191.12-.437.311-.715.529-4.814,2.107-33.123,33.215-44.311,61.492a72.006,72.006,0,0,0-2.532,7.51c-6.418,4.754-25.1,18.518-33.461,18.518-1.583,0-1.861-.857-1.861-3.258,0-1.555.775-3.99,2.189-6.877,10.561-1.981,25.864-9.174,25.864-18.638,0-2.571-4.874-6.9-7.155-6.9a5.243,5.243,0,0,0-.83.076l-.136.022c-.753-.89-2.265-2.385-3.984-2.385-3.6,0-14.059,9.84-20.3,20.33l-.12.082c-7.925,5.687-22.578,16.193-25.738,16.515.087-2.942,6.506-14.135,12.711-24.969,2.178-3.8,4.372-7.624,6.353-11.194,7.308-1.888,17.874-6.047,17.874-8.077a1.71,1.71,0,0,0-1.828-1.572,19.824,19.824,0,0,0-2.647.518c-2.156.48-5.611,1.255-9.573,1.932,2.445-4.77,3.64-7.886,3.64-9.513,0-2.767-5.125-5.256-7.542-5.256-.786,0-1.823.18-1.823,1.7,0,2.98-4.585,11.483-6.347,14.719-2.232.224-4.492.338-6.549.338a12.149,12.149,0,0,1-5.1-1.091,2.677,2.677,0,0,0-.988-.306l-.218.038a1.59,1.59,0,0,0-.966,1.528c.568,3.116,3.919,6.467,9.933,6.647-1.468,2.7-3.007,5.458-4.53,8.192l-2.609,4.7a3.018,3.018,0,0,0-1.3.639c-12.023,10.3-26.535,21.323-29.4,21.656a1.63,1.63,0,0,1-.322-.83c0-1.506,3.488-6.571,6.571-11.035C230.03,158.58,233,154.105,233,151.955c0-2.991-5.889-6.9-8.045-6.9l-.24.038a36.5,36.5,0,0,0-4.044,2.532l-1.512,1c1.872-3.116,3.558-6.336,3.558-8.1,0-3.34-4.2-5.758-7.03-5.758a1.446,1.446,0,0,0-1.572,1.446c0,1.2-2.145,4.945-4.028,8.252-2.707,4.732-4.35,7.723-4.35,9.267a3.87,3.87,0,0,0,.911,2.189c-.595.5-1.4,1.184-2.358,2-5.589,4.77-20.15,17.2-23.845,17.939.207-3.444,12.564-25.242,15.767-30.536l.087-.049v-.191a1.035,1.035,0,0,0,.142-.5c0-1.6-3.318-4.874-7.16-4.874-.961,0-2.014,1.25-4.339,4.694-1.714-2.27-4.088-4.437-6.2-4.437-3.793,0-14.894,8.721-22.393,18.818l-1.441,1.2c-11.548,9.671-29,24.287-41.664,24.287-2.7,0-4.011-1.692-4.011-5.158,0-26.781,31.78-64.482,48.83-73.635-3.018,8.077-5.387,16.553-5.387,19.429,0,2.723,1.779,7.406,3.6,7.406.8,0,1.233-.851,1.4-1.206,4.628-12.471,11.4-23.583,17.377-33.39,1.032-1.7,2.041-3.351,2.9-4.825a1.145,1.145,0,0,0,.322-.862c0-2.489-7.193-4.623-9.436-4.623-.731,0-2.9,0-7.794,10.828-1.632-1.8-4.022-3.46-5.916-3.46-8.41,0-23.392,14.37-34.509,28.615-14.506,18.583-23.168,37.134-23.168,49.627,0,11.314,8.421,19.216,20.483,19.216,9.938,0,24.876-14.19,31.851-21.421a18.5,18.5,0,0,0-.928,5.507c0,4.874,5.752,8.934,7.919,8.934,2.609,0,8.574-6.746,16.739-16.9-1.386,3.226-2.953,6.964-2.953,8.721,0,4.039,5.894,7.668,8.678,7.668,4.426,0,25.247-21.088,29.8-26.633a6.062,6.062,0,0,0,3.078,1.119c.808,0,2.341-1.2,6.194-4.344,1.725-1.414,3.6-2.947,5.048-3.979-1.315,2.9-4,6.68-6.609,10.364-4.17,5.883-8.11,11.439-8.11,15.047,0,4.688,5.965,8.809,9.573,8.809,3.444,0,18.354-13.115,26.688-21.138-3.591,6.9-5.158,10.79-5.158,12.711,0,5.108,4.181,8.934,7.914,8.934,4.464,0,18.512-11.576,24.183-16.406a16.8,16.8,0,0,0-.617,4.3,11.729,11.729,0,0,0,11.98,11.729c8.667,0,22.671-11.587,31.1-19.369-1.184,11.821,5.076,15.074,8.159,16.673l.426.224c2.434,1.293,5.725,1.839,9.851,1.834a31.988,31.988,0,0,0,6.762-.8C355.54,180.2,362,163.869,362.286,161.8a13.3,13.3,0,0,0,.169-3.979C362.406,157.434,362.084,156.577,361.4,156.436Zm-27.72-11.357c11.281-20.526,25.46-41.287,33.166-48.437a4.582,4.582,0,0,1,.24,1.364C367.083,105.647,350.077,128.225,333.677,145.078ZM285.955,161.4a53.491,53.491,0,0,1,12.684-13.966,7.007,7.007,0,0,1,.535,2.494C299.173,153.609,294.616,157.56,285.955,161.4ZM181.2,150.5a92.209,92.209,0,0,1-7.526,10.653l-.005.005c-6.849,8.116-13.873,14.676-14.839,14.992h-.082v-.076c0-6.347,14.828-26.868,22.426-26.868a2.237,2.237,0,0,1,.759.153Z" transform="translate(0)" fill="#fff"/>
    <path id="路径_103" data-name="路径 103" d="M155.72,106.671a1.9,1.9,0,0,0-.786-1.392c-1.261-1.092-3.951-2.1-5.376-1.861-2.079.491-2.347,3.973-2.347,6.948a3.138,3.138,0,0,0,1.43,2.369,3.261,3.261,0,0,0,1.872.715,1.7,1.7,0,0,0,.557-.087c4.726-2.052,4.683-4.754,4.655-6.369Z" transform="translate(221.738 71.17)" fill="#fff"/>
  </g>
</svg>
